<?xml version="1.0" encoding="utf-8" standalone="no"?>
<!DOCTYPE svg PUBLIC "-//W3C//DTD SVG 1.1//EN"
  "http://www.w3.org/Graphics/SVG/1.1/DTD/svg11.dtd">
<svg xmlns:xlink="http://www.w3.org/1999/xlink" width="568.8pt" height="568.8pt" viewBox="0 0 568.8 568.8" xmlns="http://www.w3.org/2000/svg" version="1.1">
 <metadata>
  <rdf:RDF xmlns:dc="http://purl.org/dc/elements/1.1/" xmlns:cc="http://creativecommons.org/ns#" xmlns:rdf="http://www.w3.org/1999/02/22-rdf-syntax-ns#">
   <cc:Work>
    <dc:type rdf:resource="http://purl.org/dc/dcmitype/StillImage"/>
    <dc:date>2026-01-31T16:14:59.803519</dc:date>
    <dc:format>image/svg+xml</dc:format>
    <dc:creator>
     <cc:Agent>
      <dc:title>Matplotlib v3.10.7, https://matplotlib.org/</dc:title>
     </cc:Agent>
    </dc:creator>
   </cc:Work>
  </rdf:RDF>
 </metadata>
 <defs>
  <style type="text/css">*{stroke-linejoin: round; stroke-linecap: butt}</style>
 </defs>
 <g id="figure_1">
  <g id="patch_1">
   <path d="M 0 568.8 
L 568.8 568.8 
L 568.8 0 
L 0 0 
L 0 568.8 
z
" style="fill: none; opacity: 0"/>
  </g>
  <g id="axes_1">
   <g id="LineCollection_1">
    <path d="M 284.4 71.169231 
L 202.800117 87.400457 
" clip-path="url(#p04676a2396)" style="fill: none; stroke: #1a1a1a; stroke-width: 3; stroke-linecap: round"/>
    <path d="M 202.800117 87.400457 
L 133.623077 133.623077 
" clip-path="url(#p04676a2396)" style="fill: none; stroke: #1a1a1a; stroke-width: 3; stroke-linecap: round"/>
    <path d="M 133.623077 133.623077 
L 87.400457 202.800117 
" clip-path="url(#p04676a2396)" style="fill: none; stroke: #1a1a1a; stroke-width: 3; stroke-linecap: round"/>
    <path d="M 87.400457 202.800117 
L 71.169231 284.4 
" clip-path="url(#p04676a2396)" style="fill: none; stroke: #1a1a1a; stroke-width: 3; stroke-linecap: round"/>
    <path d="M 71.169231 284.4 
L 87.400457 365.999883 
" clip-path="url(#p04676a2396)" style="fill: none; stroke: #1a1a1a; stroke-width: 3; stroke-linecap: round"/>
    <path d="M 87.400457 365.999883 
L 133.623077 435.176923 
" clip-path="url(#p04676a2396)" style="fill: none; stroke: #1a1a1a; stroke-width: 3; stroke-linecap: round"/>
    <path d="M 133.623077 435.176923 
L 202.800117 481.399543 
" clip-path="url(#p04676a2396)" style="fill: none; stroke: #1a1a1a; stroke-width: 3; stroke-linecap: round"/>
    <path d="M 202.800117 481.399543 
L 284.4 497.630769 
" clip-path="url(#p04676a2396)" style="fill: none; stroke: #1a1a1a; stroke-width: 3; stroke-linecap: round"/>
    <path d="M 284.4 497.630769 
L 365.999883 481.399543 
" clip-path="url(#p04676a2396)" style="fill: none; stroke: #1a1a1a; stroke-width: 3; stroke-linecap: round"/>
    <path d="M 365.999883 481.399543 
L 435.176923 435.176923 
" clip-path="url(#p04676a2396)" style="fill: none; stroke: #1a1a1a; stroke-width: 3; stroke-linecap: round"/>
    <path d="M 435.176923 435.176923 
L 481.399543 365.999883 
" clip-path="url(#p04676a2396)" style="fill: none; stroke: #1a1a1a; stroke-width: 3; stroke-linecap: round"/>
    <path d="M 481.399543 365.999883 
L 497.630769 284.4 
" clip-path="url(#p04676a2396)" style="fill: none; stroke: #1a1a1a; stroke-width: 3; stroke-linecap: round"/>
    <path d="M 497.630769 284.4 
L 481.399543 202.800117 
" clip-path="url(#p04676a2396)" style="fill: none; stroke: #1a1a1a; stroke-width: 3; stroke-linecap: round"/>
    <path d="M 481.399543 202.800117 
L 435.176923 133.623077 
" clip-path="url(#p04676a2396)" style="fill: none; stroke: #1a1a1a; stroke-width: 3; stroke-linecap: round"/>
    <path d="M 435.176923 133.623077 
L 365.999883 87.400457 
" clip-path="url(#p04676a2396)" style="fill: none; stroke: #1a1a1a; stroke-width: 3; stroke-linecap: round"/>
    <path d="M 365.999883 87.400457 
L 284.4 71.169231 
" clip-path="url(#p04676a2396)" style="fill: none; stroke: #1a1a1a; stroke-width: 3; stroke-linecap: round"/>
    <path d="M 255.280518 138.00648 
L 201.474732 160.293566 
" clip-path="url(#p04676a2396)" style="fill: none; stroke: #1a1a1a; stroke-width: 3; stroke-linecap: round"/>
    <path d="M 201.474732 160.293566 
L 160.293566 201.474732 
" clip-path="url(#p04676a2396)" style="fill: none; stroke: #1a1a1a; stroke-width: 3; stroke-linecap: round"/>
    <path d="M 160.293566 201.474732 
L 138.00648 255.280518 
" clip-path="url(#p04676a2396)" style="fill: none; stroke: #1a1a1a; stroke-width: 3; stroke-linecap: round"/>
    <path d="M 138.00648 255.280518 
L 138.00648 313.519482 
" clip-path="url(#p04676a2396)" style="fill: none; stroke: #1a1a1a; stroke-width: 3; stroke-linecap: round"/>
    <path d="M 138.00648 313.519482 
L 160.293566 367.325268 
" clip-path="url(#p04676a2396)" style="fill: none; stroke: #1a1a1a; stroke-width: 3; stroke-linecap: round"/>
    <path d="M 160.293566 367.325268 
L 201.474732 408.506434 
" clip-path="url(#p04676a2396)" style="fill: none; stroke: #1a1a1a; stroke-width: 3; stroke-linecap: round"/>
    <path d="M 201.474732 408.506434 
L 255.280518 430.79352 
" clip-path="url(#p04676a2396)" style="fill: none; stroke: #1a1a1a; stroke-width: 3; stroke-linecap: round"/>
    <path d="M 255.280518 430.79352 
L 313.519482 430.79352 
" clip-path="url(#p04676a2396)" style="fill: none; stroke: #1a1a1a; stroke-width: 3; stroke-linecap: round"/>
    <path d="M 313.519482 430.79352 
L 367.325268 408.506434 
" clip-path="url(#p04676a2396)" style="fill: none; stroke: #1a1a1a; stroke-width: 3; stroke-linecap: round"/>
    <path d="M 367.325268 408.506434 
L 408.506434 367.325268 
" clip-path="url(#p04676a2396)" style="fill: none; stroke: #1a1a1a; stroke-width: 3; stroke-linecap: round"/>
    <path d="M 408.506434 367.325268 
L 430.79352 313.519482 
" clip-path="url(#p04676a2396)" style="fill: none; stroke: #1a1a1a; stroke-width: 3; stroke-linecap: round"/>
    <path d="M 430.79352 313.519482 
L 430.79352 255.280518 
" clip-path="url(#p04676a2396)" style="fill: none; stroke: #1a1a1a; stroke-width: 3; stroke-linecap: round"/>
    <path d="M 430.79352 255.280518 
L 408.506434 201.474732 
" clip-path="url(#p04676a2396)" style="fill: none; stroke: #1a1a1a; stroke-width: 3; stroke-linecap: round"/>
    <path d="M 408.506434 201.474732 
L 367.325268 160.293566 
" clip-path="url(#p04676a2396)" style="fill: none; stroke: #1a1a1a; stroke-width: 3; stroke-linecap: round"/>
    <path d="M 367.325268 160.293566 
L 313.519482 138.00648 
" clip-path="url(#p04676a2396)" style="fill: none; stroke: #1a1a1a; stroke-width: 3; stroke-linecap: round"/>
    <path d="M 313.519482 138.00648 
L 255.280518 138.00648 
" clip-path="url(#p04676a2396)" style="fill: none; stroke: #1a1a1a; stroke-width: 3; stroke-linecap: round"/>
    <path d="M 284.4 71.169231 
L 255.280518 138.00648 
" clip-path="url(#p04676a2396)" style="fill: none; stroke: #1a1a1a; stroke-width: 3; stroke-linecap: round"/>
    <path d="M 284.4 71.169231 
L 313.519482 138.00648 
" clip-path="url(#p04676a2396)" style="fill: none; stroke: #1a1a1a; stroke-width: 3; stroke-linecap: round"/>
    <path d="M 202.800117 87.400457 
L 201.474732 160.293566 
" clip-path="url(#p04676a2396)" style="fill: none; stroke: #1a1a1a; stroke-width: 3; stroke-linecap: round"/>
    <path d="M 202.800117 87.400457 
L 255.280518 138.00648 
" clip-path="url(#p04676a2396)" style="fill: none; stroke: #1a1a1a; stroke-width: 3; stroke-linecap: round"/>
    <path d="M 133.623077 133.623077 
L 160.293566 201.474732 
" clip-path="url(#p04676a2396)" style="fill: none; stroke: #1a1a1a; stroke-width: 3; stroke-linecap: round"/>
    <path d="M 133.623077 133.623077 
L 201.474732 160.293566 
" clip-path="url(#p04676a2396)" style="fill: none; stroke: #1a1a1a; stroke-width: 3; stroke-linecap: round"/>
    <path d="M 87.400457 202.800117 
L 138.00648 255.280518 
" clip-path="url(#p04676a2396)" style="fill: none; stroke: #1a1a1a; stroke-width: 3; stroke-linecap: round"/>
    <path d="M 87.400457 202.800117 
L 160.293566 201.474732 
" clip-path="url(#p04676a2396)" style="fill: none; stroke: #1a1a1a; stroke-width: 3; stroke-linecap: round"/>
    <path d="M 71.169231 284.4 
L 138.00648 313.519482 
" clip-path="url(#p04676a2396)" style="fill: none; stroke: #1a1a1a; stroke-width: 3; stroke-linecap: round"/>
    <path d="M 71.169231 284.4 
L 138.00648 255.280518 
" clip-path="url(#p04676a2396)" style="fill: none; stroke: #1a1a1a; stroke-width: 3; stroke-linecap: round"/>
    <path d="M 87.400457 365.999883 
L 160.293566 367.325268 
" clip-path="url(#p04676a2396)" style="fill: none; stroke: #1a1a1a; stroke-width: 3; stroke-linecap: round"/>
    <path d="M 87.400457 365.999883 
L 138.00648 313.519482 
" clip-path="url(#p04676a2396)" style="fill: none; stroke: #1a1a1a; stroke-width: 3; stroke-linecap: round"/>
    <path d="M 133.623077 435.176923 
L 201.474732 408.506434 
" clip-path="url(#p04676a2396)" style="fill: none; stroke: #1a1a1a; stroke-width: 3; stroke-linecap: round"/>
    <path d="M 133.623077 435.176923 
L 160.293566 367.325268 
" clip-path="url(#p04676a2396)" style="fill: none; stroke: #1a1a1a; stroke-width: 3; stroke-linecap: round"/>
    <path d="M 202.800117 481.399543 
L 255.280518 430.79352 
" clip-path="url(#p04676a2396)" style="fill: none; stroke: #1a1a1a; stroke-width: 3; stroke-linecap: round"/>
    <path d="M 202.800117 481.399543 
L 201.474732 408.506434 
" clip-path="url(#p04676a2396)" style="fill: none; stroke: #1a1a1a; stroke-width: 3; stroke-linecap: round"/>
    <path d="M 284.4 497.630769 
L 313.519482 430.79352 
" clip-path="url(#p04676a2396)" style="fill: none; stroke: #1a1a1a; stroke-width: 3; stroke-linecap: round"/>
    <path d="M 284.4 497.630769 
L 255.280518 430.79352 
" clip-path="url(#p04676a2396)" style="fill: none; stroke: #1a1a1a; stroke-width: 3; stroke-linecap: round"/>
    <path d="M 365.999883 481.399543 
L 367.325268 408.506434 
" clip-path="url(#p04676a2396)" style="fill: none; stroke: #1a1a1a; stroke-width: 3; stroke-linecap: round"/>
    <path d="M 365.999883 481.399543 
L 313.519482 430.79352 
" clip-path="url(#p04676a2396)" style="fill: none; stroke: #1a1a1a; stroke-width: 3; stroke-linecap: round"/>
    <path d="M 435.176923 435.176923 
L 408.506434 367.325268 
" clip-path="url(#p04676a2396)" style="fill: none; stroke: #1a1a1a; stroke-width: 3; stroke-linecap: round"/>
    <path d="M 435.176923 435.176923 
L 367.325268 408.506434 
" clip-path="url(#p04676a2396)" style="fill: none; stroke: #1a1a1a; stroke-width: 3; stroke-linecap: round"/>
    <path d="M 481.399543 365.999883 
L 430.79352 313.519482 
" clip-path="url(#p04676a2396)" style="fill: none; stroke: #1a1a1a; stroke-width: 3; stroke-linecap: round"/>
    <path d="M 481.399543 365.999883 
L 408.506434 367.325268 
" clip-path="url(#p04676a2396)" style="fill: none; stroke: #1a1a1a; stroke-width: 3; stroke-linecap: round"/>
    <path d="M 497.630769 284.4 
L 430.79352 255.280518 
" clip-path="url(#p04676a2396)" style="fill: none; stroke: #1a1a1a; stroke-width: 3; stroke-linecap: round"/>
    <path d="M 497.630769 284.4 
L 430.79352 313.519482 
" clip-path="url(#p04676a2396)" style="fill: none; stroke: #1a1a1a; stroke-width: 3; stroke-linecap: round"/>
    <path d="M 481.399543 202.800117 
L 408.506434 201.474732 
" clip-path="url(#p04676a2396)" style="fill: none; stroke: #1a1a1a; stroke-width: 3; stroke-linecap: round"/>
    <path d="M 481.399543 202.800117 
L 430.79352 255.280518 
" clip-path="url(#p04676a2396)" style="fill: none; stroke: #1a1a1a; stroke-width: 3; stroke-linecap: round"/>
    <path d="M 435.176923 133.623077 
L 367.325268 160.293566 
" clip-path="url(#p04676a2396)" style="fill: none; stroke: #1a1a1a; stroke-width: 3; stroke-linecap: round"/>
    <path d="M 435.176923 133.623077 
L 408.506434 201.474732 
" clip-path="url(#p04676a2396)" style="fill: none; stroke: #1a1a1a; stroke-width: 3; stroke-linecap: round"/>
    <path d="M 365.999883 87.400457 
L 313.519482 138.00648 
" clip-path="url(#p04676a2396)" style="fill: none; stroke: #1a1a1a; stroke-width: 3; stroke-linecap: round"/>
    <path d="M 365.999883 87.400457 
L 367.325268 160.293566 
" clip-path="url(#p04676a2396)" style="fill: none; stroke: #1a1a1a; stroke-width: 3; stroke-linecap: round"/>
   </g>
   <g id="patch_2">
    <path d="M 284.4 85.029231 
C 288.075715 85.029231 291.601377 83.568854 294.2005 80.969731 
C 296.799623 78.370608 298.26 74.844946 298.26 71.169231 
C 298.26 67.493516 296.799623 63.967854 294.2005 61.368731 
C 291.601377 58.769608 288.075715 57.309231 284.4 57.309231 
C 280.724285 57.309231 277.198623 58.769608 274.5995 61.368731 
C 272.000377 63.967854 270.54 67.493516 270.54 71.169231 
C 270.54 74.844946 272.000377 78.370608 274.5995 80.969731 
C 277.198623 83.568854 280.724285 85.029231 284.4 85.029231 
z
" clip-path="url(#p04676a2396)" style="fill: #1a1a1a"/>
   </g>
   <g id="patch_3">
    <path d="M 255.280518 151.86648 
C 258.956233 151.86648 262.481895 150.406103 265.081018 147.80698 
C 267.680141 145.207857 269.140518 141.682195 269.140518 138.00648 
C 269.140518 134.330765 267.680141 130.805103 265.081018 128.20598 
C 262.481895 125.606857 258.956233 124.14648 255.280518 124.14648 
C 251.604803 124.14648 248.079141 125.606857 245.480018 128.20598 
C 242.880895 130.805103 241.420518 134.330765 241.420518 138.00648 
C 241.420518 141.682195 242.880895 145.207857 245.480018 147.80698 
C 248.079141 150.406103 251.604803 151.86648 255.280518 151.86648 
z
" clip-path="url(#p04676a2396)" style="fill: #1a1a1a"/>
   </g>
   <g id="patch_4">
    <path d="M 202.800117 101.260457 
C 206.475832 101.260457 210.001494 99.80008 212.600617 97.200957 
C 215.19974 94.601834 216.660117 91.076172 216.660117 87.400457 
C 216.660117 83.724742 215.19974 80.19908 212.600617 77.599957 
C 210.001494 75.000834 206.475832 73.540457 202.800117 73.540457 
C 199.124402 73.540457 195.59874 75.000834 192.999617 77.599957 
C 190.400494 80.19908 188.940117 83.724742 188.940117 87.400457 
C 188.940117 91.076172 190.400494 94.601834 192.999617 97.200957 
C 195.59874 99.80008 199.124402 101.260457 202.800117 101.260457 
z
" clip-path="url(#p04676a2396)" style="fill: #1a1a1a"/>
   </g>
   <g id="patch_5">
    <path d="M 201.474732 174.153566 
C 205.150447 174.153566 208.676109 172.693189 211.275232 170.094066 
C 213.874355 167.494943 215.334732 163.969281 215.334732 160.293566 
C 215.334732 156.617852 213.874355 153.092189 211.275232 150.493066 
C 208.676109 147.893944 205.150447 146.433566 201.474732 146.433566 
C 197.799017 146.433566 194.273355 147.893944 191.674232 150.493066 
C 189.075109 153.092189 187.614732 156.617852 187.614732 160.293566 
C 187.614732 163.969281 189.075109 167.494943 191.674232 170.094066 
C 194.273355 172.693189 197.799017 174.153566 201.474732 174.153566 
z
" clip-path="url(#p04676a2396)" style="fill: #1a1a1a"/>
   </g>
   <g id="patch_6">
    <path d="M 133.623077 147.483077 
C 137.298792 147.483077 140.824454 146.0227 143.423577 143.423577 
C 146.0227 140.824454 147.483077 137.298792 147.483077 133.623077 
C 147.483077 129.947362 146.0227 126.4217 143.423577 123.822577 
C 140.824454 121.223454 137.298792 119.763077 133.623077 119.763077 
C 129.947362 119.763077 126.4217 121.223454 123.822577 123.822577 
C 121.223454 126.4217 119.763077 129.947362 119.763077 133.623077 
C 119.763077 137.298792 121.223454 140.824454 123.822577 143.423577 
C 126.4217 146.0227 129.947362 147.483077 133.623077 147.483077 
z
" clip-path="url(#p04676a2396)" style="fill: #1a1a1a"/>
   </g>
   <g id="patch_7">
    <path d="M 160.293566 215.334732 
C 163.969281 215.334732 167.494943 213.874355 170.094066 211.275232 
C 172.693189 208.676109 174.153566 205.150447 174.153566 201.474732 
C 174.153566 197.799017 172.693189 194.273355 170.094066 191.674232 
C 167.494943 189.075109 163.969281 187.614732 160.293566 187.614732 
C 156.617852 187.614732 153.092189 189.075109 150.493066 191.674232 
C 147.893944 194.273355 146.433566 197.799017 146.433566 201.474732 
C 146.433566 205.150447 147.893944 208.676109 150.493066 211.275232 
C 153.092189 213.874355 156.617852 215.334732 160.293566 215.334732 
z
" clip-path="url(#p04676a2396)" style="fill: #1a1a1a"/>
   </g>
   <g id="patch_8">
    <path d="M 87.400457 216.660117 
C 91.076172 216.660117 94.601834 215.19974 97.200957 212.600617 
C 99.80008 210.001494 101.260457 206.475832 101.260457 202.800117 
C 101.260457 199.124402 99.80008 195.59874 97.200957 192.999617 
C 94.601834 190.400494 91.076172 188.940117 87.400457 188.940117 
C 83.724742 188.940117 80.19908 190.400494 77.599957 192.999617 
C 75.000834 195.59874 73.540457 199.124402 73.540457 202.800117 
C 73.540457 206.475832 75.000834 210.001494 77.599957 212.600617 
C 80.19908 215.19974 83.724742 216.660117 87.400457 216.660117 
z
" clip-path="url(#p04676a2396)" style="fill: #1a1a1a"/>
   </g>
   <g id="patch_9">
    <path d="M 138.00648 269.140518 
C 141.682195 269.140518 145.207857 267.680141 147.80698 265.081018 
C 150.406103 262.481895 151.86648 258.956233 151.86648 255.280518 
C 151.86648 251.604803 150.406103 248.079141 147.80698 245.480018 
C 145.207857 242.880895 141.682195 241.420518 138.00648 241.420518 
C 134.330765 241.420518 130.805103 242.880895 128.20598 245.480018 
C 125.606857 248.079141 124.14648 251.604803 124.14648 255.280518 
C 124.14648 258.956233 125.606857 262.481895 128.20598 265.081018 
C 130.805103 267.680141 134.330765 269.140518 138.00648 269.140518 
z
" clip-path="url(#p04676a2396)" style="fill: #1a1a1a"/>
   </g>
   <g id="patch_10">
    <path d="M 71.169231 298.26 
C 74.844946 298.26 78.370608 296.799623 80.969731 294.2005 
C 83.568854 291.601377 85.029231 288.075715 85.029231 284.4 
C 85.029231 280.724285 83.568854 277.198623 80.969731 274.5995 
C 78.370608 272.000377 74.844946 270.54 71.169231 270.54 
C 67.493516 270.54 63.967854 272.000377 61.368731 274.5995 
C 58.769608 277.198623 57.309231 280.724285 57.309231 284.4 
C 57.309231 288.075715 58.769608 291.601377 61.368731 294.2005 
C 63.967854 296.799623 67.493516 298.26 71.169231 298.26 
z
" clip-path="url(#p04676a2396)" style="fill: #1a1a1a"/>
   </g>
   <g id="patch_11">
    <path d="M 138.00648 327.379482 
C 141.682195 327.379482 145.207857 325.919105 147.80698 323.319982 
C 150.406103 320.720859 151.86648 317.195197 151.86648 313.519482 
C 151.86648 309.843767 150.406103 306.318105 147.80698 303.718982 
C 145.207857 301.119859 141.682195 299.659482 138.00648 299.659482 
C 134.330765 299.659482 130.805103 301.119859 128.20598 303.718982 
C 125.606857 306.318105 124.14648 309.843767 124.14648 313.519482 
C 124.14648 317.195197 125.606857 320.720859 128.20598 323.319982 
C 130.805103 325.919105 134.330765 327.379482 138.00648 327.379482 
z
" clip-path="url(#p04676a2396)" style="fill: #1a1a1a"/>
   </g>
   <g id="patch_12">
    <path d="M 87.400457 379.859883 
C 91.076172 379.859883 94.601834 378.399506 97.200957 375.800383 
C 99.80008 373.20126 101.260457 369.675598 101.260457 365.999883 
C 101.260457 362.324168 99.80008 358.798506 97.200957 356.199383 
C 94.601834 353.60026 91.076172 352.139883 87.400457 352.139883 
C 83.724742 352.139883 80.19908 353.60026 77.599957 356.199383 
C 75.000834 358.798506 73.540457 362.324168 73.540457 365.999883 
C 73.540457 369.675598 75.000834 373.20126 77.599957 375.800383 
C 80.19908 378.399506 83.724742 379.859883 87.400457 379.859883 
z
" clip-path="url(#p04676a2396)" style="fill: #1a1a1a"/>
   </g>
   <g id="patch_13">
    <path d="M 160.293566 381.185268 
C 163.969281 381.185268 167.494943 379.724891 170.094066 377.125768 
C 172.693189 374.526645 174.153566 371.000983 174.153566 367.325268 
C 174.153566 363.649553 172.693189 360.123891 170.094066 357.524768 
C 167.494943 354.925645 163.969281 353.465268 160.293566 353.465268 
C 156.617852 353.465268 153.092189 354.925645 150.493066 357.524768 
C 147.893944 360.123891 146.433566 363.649553 146.433566 367.325268 
C 146.433566 371.000983 147.893944 374.526645 150.493066 377.125768 
C 153.092189 379.724891 156.617852 381.185268 160.293566 381.185268 
z
" clip-path="url(#p04676a2396)" style="fill: #1a1a1a"/>
   </g>
   <g id="patch_14">
    <path d="M 133.623077 449.036923 
C 137.298792 449.036923 140.824454 447.576546 143.423577 444.977423 
C 146.0227 442.3783 147.483077 438.852638 147.483077 435.176923 
C 147.483077 431.501208 146.0227 427.975546 143.423577 425.376423 
C 140.824454 422.7773 137.298792 421.316923 133.623077 421.316923 
C 129.947362 421.316923 126.4217 422.7773 123.822577 425.376423 
C 121.223454 427.975546 119.763077 431.501208 119.763077 435.176923 
C 119.763077 438.852638 121.223454 442.3783 123.822577 444.977423 
C 126.4217 447.576546 129.947362 449.036923 133.623077 449.036923 
z
" clip-path="url(#p04676a2396)" style="fill: #1a1a1a"/>
   </g>
   <g id="patch_15">
    <path d="M 201.474732 422.366434 
C 205.150447 422.366434 208.676109 420.906056 211.275232 418.306934 
C 213.874355 415.707811 215.334732 412.182148 215.334732 408.506434 
C 215.334732 404.830719 213.874355 401.305057 211.275232 398.705934 
C 208.676109 396.106811 205.150447 394.646434 201.474732 394.646434 
C 197.799017 394.646434 194.273355 396.106811 191.674232 398.705934 
C 189.075109 401.305057 187.614732 404.830719 187.614732 408.506434 
C 187.614732 412.182148 189.075109 415.707811 191.674232 418.306934 
C 194.273355 420.906056 197.799017 422.366434 201.474732 422.366434 
z
" clip-path="url(#p04676a2396)" style="fill: #1a1a1a"/>
   </g>
   <g id="patch_16">
    <path d="M 202.800117 495.259543 
C 206.475832 495.259543 210.001494 493.799166 212.600617 491.200043 
C 215.19974 488.60092 216.660117 485.075258 216.660117 481.399543 
C 216.660117 477.723828 215.19974 474.198166 212.600617 471.599043 
C 210.001494 468.99992 206.475832 467.539543 202.800117 467.539543 
C 199.124402 467.539543 195.59874 468.99992 192.999617 471.599043 
C 190.400494 474.198166 188.940117 477.723828 188.940117 481.399543 
C 188.940117 485.075258 190.400494 488.60092 192.999617 491.200043 
C 195.59874 493.799166 199.124402 495.259543 202.800117 495.259543 
z
" clip-path="url(#p04676a2396)" style="fill: #1a1a1a"/>
   </g>
   <g id="patch_17">
    <path d="M 255.280518 444.65352 
C 258.956233 444.65352 262.481895 443.193143 265.081018 440.59402 
C 267.680141 437.994897 269.140518 434.469235 269.140518 430.79352 
C 269.140518 427.117805 267.680141 423.592143 265.081018 420.99302 
C 262.481895 418.393897 258.956233 416.93352 255.280518 416.93352 
C 251.604803 416.93352 248.079141 418.393897 245.480018 420.99302 
C 242.880895 423.592143 241.420518 427.117805 241.420518 430.79352 
C 241.420518 434.469235 242.880895 437.994897 245.480018 440.59402 
C 248.079141 443.193143 251.604803 444.65352 255.280518 444.65352 
z
" clip-path="url(#p04676a2396)" style="fill: #1a1a1a"/>
   </g>
   <g id="patch_18">
    <path d="M 284.4 511.490769 
C 288.075715 511.490769 291.601377 510.030392 294.2005 507.431269 
C 296.799623 504.832146 298.26 501.306484 298.26 497.630769 
C 298.26 493.955054 296.799623 490.429392 294.2005 487.830269 
C 291.601377 485.231146 288.075715 483.770769 284.4 483.770769 
C 280.724285 483.770769 277.198623 485.231146 274.5995 487.830269 
C 272.000377 490.429392 270.54 493.955054 270.54 497.630769 
C 270.54 501.306484 272.000377 504.832146 274.5995 507.431269 
C 277.198623 510.030392 280.724285 511.490769 284.4 511.490769 
z
" clip-path="url(#p04676a2396)" style="fill: #1a1a1a"/>
   </g>
   <g id="patch_19">
    <path d="M 313.519482 444.65352 
C 317.195197 444.65352 320.720859 443.193143 323.319982 440.59402 
C 325.919105 437.994897 327.379482 434.469235 327.379482 430.79352 
C 327.379482 427.117805 325.919105 423.592143 323.319982 420.99302 
C 320.720859 418.393897 317.195197 416.93352 313.519482 416.93352 
C 309.843767 416.93352 306.318105 418.393897 303.718982 420.99302 
C 301.119859 423.592143 299.659482 427.117805 299.659482 430.79352 
C 299.659482 434.469235 301.119859 437.994897 303.718982 440.59402 
C 306.318105 443.193143 309.843767 444.65352 313.519482 444.65352 
z
" clip-path="url(#p04676a2396)" style="fill: #1a1a1a"/>
   </g>
   <g id="patch_20">
    <path d="M 365.999883 495.259543 
C 369.675598 495.259543 373.20126 493.799166 375.800383 491.200043 
C 378.399506 488.60092 379.859883 485.075258 379.859883 481.399543 
C 379.859883 477.723828 378.399506 474.198166 375.800383 471.599043 
C 373.20126 468.99992 369.675598 467.539543 365.999883 467.539543 
C 362.324168 467.539543 358.798506 468.99992 356.199383 471.599043 
C 353.60026 474.198166 352.139883 477.723828 352.139883 481.399543 
C 352.139883 485.075258 353.60026 488.60092 356.199383 491.200043 
C 358.798506 493.799166 362.324168 495.259543 365.999883 495.259543 
z
" clip-path="url(#p04676a2396)" style="fill: #1a1a1a"/>
   </g>
   <g id="patch_21">
    <path d="M 367.325268 422.366434 
C 371.000983 422.366434 374.526645 420.906056 377.125768 418.306934 
C 379.724891 415.707811 381.185268 412.182148 381.185268 408.506434 
C 381.185268 404.830719 379.724891 401.305057 377.125768 398.705934 
C 374.526645 396.106811 371.000983 394.646434 367.325268 394.646434 
C 363.649553 394.646434 360.123891 396.106811 357.524768 398.705934 
C 354.925645 401.305057 353.465268 404.830719 353.465268 408.506434 
C 353.465268 412.182148 354.925645 415.707811 357.524768 418.306934 
C 360.123891 420.906056 363.649553 422.366434 367.325268 422.366434 
z
" clip-path="url(#p04676a2396)" style="fill: #1a1a1a"/>
   </g>
   <g id="patch_22">
    <path d="M 435.176923 449.036923 
C 438.852638 449.036923 442.3783 447.576546 444.977423 444.977423 
C 447.576546 442.3783 449.036923 438.852638 449.036923 435.176923 
C 449.036923 431.501208 447.576546 427.975546 444.977423 425.376423 
C 442.3783 422.7773 438.852638 421.316923 435.176923 421.316923 
C 431.501208 421.316923 427.975546 422.7773 425.376423 425.376423 
C 422.7773 427.975546 421.316923 431.501208 421.316923 435.176923 
C 421.316923 438.852638 422.7773 442.3783 425.376423 444.977423 
C 427.975546 447.576546 431.501208 449.036923 435.176923 449.036923 
z
" clip-path="url(#p04676a2396)" style="fill: #1a1a1a"/>
   </g>
   <g id="patch_23">
    <path d="M 408.506434 381.185268 
C 412.182148 381.185268 415.707811 379.724891 418.306934 377.125768 
C 420.906056 374.526645 422.366434 371.000983 422.366434 367.325268 
C 422.366434 363.649553 420.906056 360.123891 418.306934 357.524768 
C 415.707811 354.925645 412.182148 353.465268 408.506434 353.465268 
C 404.830719 353.465268 401.305057 354.925645 398.705934 357.524768 
C 396.106811 360.123891 394.646434 363.649553 394.646434 367.325268 
C 394.646434 371.000983 396.106811 374.526645 398.705934 377.125768 
C 401.305057 379.724891 404.830719 381.185268 408.506434 381.185268 
z
" clip-path="url(#p04676a2396)" style="fill: #1a1a1a"/>
   </g>
   <g id="patch_24">
    <path d="M 481.399543 379.859883 
C 485.075258 379.859883 488.60092 378.399506 491.200043 375.800383 
C 493.799166 373.20126 495.259543 369.675598 495.259543 365.999883 
C 495.259543 362.324168 493.799166 358.798506 491.200043 356.199383 
C 488.60092 353.60026 485.075258 352.139883 481.399543 352.139883 
C 477.723828 352.139883 474.198166 353.60026 471.599043 356.199383 
C 468.99992 358.798506 467.539543 362.324168 467.539543 365.999883 
C 467.539543 369.675598 468.99992 373.20126 471.599043 375.800383 
C 474.198166 378.399506 477.723828 379.859883 481.399543 379.859883 
z
" clip-path="url(#p04676a2396)" style="fill: #1a1a1a"/>
   </g>
   <g id="patch_25">
    <path d="M 430.79352 327.379482 
C 434.469235 327.379482 437.994897 325.919105 440.59402 323.319982 
C 443.193143 320.720859 444.65352 317.195197 444.65352 313.519482 
C 444.65352 309.843767 443.193143 306.318105 440.59402 303.718982 
C 437.994897 301.119859 434.469235 299.659482 430.79352 299.659482 
C 427.117805 299.659482 423.592143 301.119859 420.99302 303.718982 
C 418.393897 306.318105 416.93352 309.843767 416.93352 313.519482 
C 416.93352 317.195197 418.393897 320.720859 420.99302 323.319982 
C 423.592143 325.919105 427.117805 327.379482 430.79352 327.379482 
z
" clip-path="url(#p04676a2396)" style="fill: #1a1a1a"/>
   </g>
   <g id="patch_26">
    <path d="M 497.630769 298.26 
C 501.306484 298.26 504.832146 296.799623 507.431269 294.2005 
C 510.030392 291.601377 511.490769 288.075715 511.490769 284.4 
C 511.490769 280.724285 510.030392 277.198623 507.431269 274.5995 
C 504.832146 272.000377 501.306484 270.54 497.630769 270.54 
C 493.955054 270.54 490.429392 272.000377 487.830269 274.5995 
C 485.231146 277.198623 483.770769 280.724285 483.770769 284.4 
C 483.770769 288.075715 485.231146 291.601377 487.830269 294.2005 
C 490.429392 296.799623 493.955054 298.26 497.630769 298.26 
z
" clip-path="url(#p04676a2396)" style="fill: #1a1a1a"/>
   </g>
   <g id="patch_27">
    <path d="M 430.79352 269.140518 
C 434.469235 269.140518 437.994897 267.680141 440.59402 265.081018 
C 443.193143 262.481895 444.65352 258.956233 444.65352 255.280518 
C 444.65352 251.604803 443.193143 248.079141 440.59402 245.480018 
C 437.994897 242.880895 434.469235 241.420518 430.79352 241.420518 
C 427.117805 241.420518 423.592143 242.880895 420.99302 245.480018 
C 418.393897 248.079141 416.93352 251.604803 416.93352 255.280518 
C 416.93352 258.956233 418.393897 262.481895 420.99302 265.081018 
C 423.592143 267.680141 427.117805 269.140518 430.79352 269.140518 
z
" clip-path="url(#p04676a2396)" style="fill: #1a1a1a"/>
   </g>
   <g id="patch_28">
    <path d="M 481.399543 216.660117 
C 485.075258 216.660117 488.60092 215.19974 491.200043 212.600617 
C 493.799166 210.001494 495.259543 206.475832 495.259543 202.800117 
C 495.259543 199.124402 493.799166 195.59874 491.200043 192.999617 
C 488.60092 190.400494 485.075258 188.940117 481.399543 188.940117 
C 477.723828 188.940117 474.198166 190.400494 471.599043 192.999617 
C 468.99992 195.59874 467.539543 199.124402 467.539543 202.800117 
C 467.539543 206.475832 468.99992 210.001494 471.599043 212.600617 
C 474.198166 215.19974 477.723828 216.660117 481.399543 216.660117 
z
" clip-path="url(#p04676a2396)" style="fill: #1a1a1a"/>
   </g>
   <g id="patch_29">
    <path d="M 408.506434 215.334732 
C 412.182148 215.334732 415.707811 213.874355 418.306934 211.275232 
C 420.906056 208.676109 422.366434 205.150447 422.366434 201.474732 
C 422.366434 197.799017 420.906056 194.273355 418.306934 191.674232 
C 415.707811 189.075109 412.182148 187.614732 408.506434 187.614732 
C 404.830719 187.614732 401.305057 189.075109 398.705934 191.674232 
C 396.106811 194.273355 394.646434 197.799017 394.646434 201.474732 
C 394.646434 205.150447 396.106811 208.676109 398.705934 211.275232 
C 401.305057 213.874355 404.830719 215.334732 408.506434 215.334732 
z
" clip-path="url(#p04676a2396)" style="fill: #1a1a1a"/>
   </g>
   <g id="patch_30">
    <path d="M 435.176923 147.483077 
C 438.852638 147.483077 442.3783 146.0227 444.977423 143.423577 
C 447.576546 140.824454 449.036923 137.298792 449.036923 133.623077 
C 449.036923 129.947362 447.576546 126.4217 444.977423 123.822577 
C 442.3783 121.223454 438.852638 119.763077 435.176923 119.763077 
C 431.501208 119.763077 427.975546 121.223454 425.376423 123.822577 
C 422.7773 126.4217 421.316923 129.947362 421.316923 133.623077 
C 421.316923 137.298792 422.7773 140.824454 425.376423 143.423577 
C 427.975546 146.0227 431.501208 147.483077 435.176923 147.483077 
z
" clip-path="url(#p04676a2396)" style="fill: #1a1a1a"/>
   </g>
   <g id="patch_31">
    <path d="M 367.325268 174.153566 
C 371.000983 174.153566 374.526645 172.693189 377.125768 170.094066 
C 379.724891 167.494943 381.185268 163.969281 381.185268 160.293566 
C 381.185268 156.617852 379.724891 153.092189 377.125768 150.493066 
C 374.526645 147.893944 371.000983 146.433566 367.325268 146.433566 
C 363.649553 146.433566 360.123891 147.893944 357.524768 150.493066 
C 354.925645 153.092189 353.465268 156.617852 353.465268 160.293566 
C 353.465268 163.969281 354.925645 167.494943 357.524768 170.094066 
C 360.123891 172.693189 363.649553 174.153566 367.325268 174.153566 
z
" clip-path="url(#p04676a2396)" style="fill: #1a1a1a"/>
   </g>
   <g id="patch_32">
    <path d="M 365.999883 101.260457 
C 369.675598 101.260457 373.20126 99.80008 375.800383 97.200957 
C 378.399506 94.601834 379.859883 91.076172 379.859883 87.400457 
C 379.859883 83.724742 378.399506 80.19908 375.800383 77.599957 
C 373.20126 75.000834 369.675598 73.540457 365.999883 73.540457 
C 362.324168 73.540457 358.798506 75.000834 356.199383 77.599957 
C 353.60026 80.19908 352.139883 83.724742 352.139883 87.400457 
C 352.139883 91.076172 353.60026 94.601834 356.199383 97.200957 
C 358.798506 99.80008 362.324168 101.260457 365.999883 101.260457 
z
" clip-path="url(#p04676a2396)" style="fill: #1a1a1a"/>
   </g>
   <g id="patch_33">
    <path d="M 313.519482 151.86648 
C 317.195197 151.86648 320.720859 150.406103 323.319982 147.80698 
C 325.919105 145.207857 327.379482 141.682195 327.379482 138.00648 
C 327.379482 134.330765 325.919105 130.805103 323.319982 128.20598 
C 320.720859 125.606857 317.195197 124.14648 313.519482 124.14648 
C 309.843767 124.14648 306.318105 125.606857 303.718982 128.20598 
C 301.119859 130.805103 299.659482 134.330765 299.659482 138.00648 
C 299.659482 141.682195 301.119859 145.207857 303.718982 147.80698 
C 306.318105 150.406103 309.843767 151.86648 313.519482 151.86648 
z
" clip-path="url(#p04676a2396)" style="fill: #1a1a1a"/>
   </g>
  </g>
 </g>
 <defs>
  <clipPath id="p04676a2396">
   <rect x="7.2" y="7.2" width="554.4" height="554.4"/>
  </clipPath>
 </defs>
</svg>
