<svg xmlns="http://www.w3.org/2000/svg" xmlns:xlink="http://www.w3.org/1999/xlink" width="1800" zoomAndPan="magnify" viewBox="0 0 1350 299.999988" height="400" preserveAspectRatio="xMidYMid meet" version="1.0"><defs><g/><clipPath id="2a5505582d"><rect x="0" width="945" y="0" height="268"/></clipPath></defs><path stroke-linecap="round" transform="matrix(0.357331, 0, 0, 0.357331, 129.230788, 59.485032)" fill="none" stroke-linejoin="round" d="M 284.39914 71.174692 L 202.804665 87.397388 " stroke="#1a1a1a" stroke-width="3" stroke-opacity="1" stroke-miterlimit="4"/><path stroke-linecap="round" transform="matrix(0.357331, 0, 0, 0.357331, 129.230788, 59.485032)" fill="none" stroke-linejoin="round" d="M 202.804665 87.397388 L 133.61771 133.627698 " stroke="#1a1a1a" stroke-width="3" stroke-opacity="1" stroke-miterlimit="4"/><path stroke-linecap="round" transform="matrix(0.357331, 0, 0, 0.357331, 129.230788, 59.485032)" fill="none" stroke-linejoin="round" d="M 133.61771 133.627698 L 87.398332 202.803721 " stroke="#1a1a1a" stroke-width="3" stroke-opacity="1" stroke-miterlimit="4"/><path stroke-linecap="round" transform="matrix(0.357331, 0, 0, 0.357331, 129.230788, 59.485032)" fill="none" stroke-linejoin="round" d="M 87.398332 202.803721 L 71.164704 284.398196 " stroke="#1a1a1a" stroke-width="3" stroke-opacity="1" stroke-miterlimit="4"/><path stroke-linecap="round" transform="matrix(0.357331, 0, 0, 0.357331, 129.230788, 59.485032)" fill="none" stroke-linejoin="round" d="M 71.164704 284.398196 L 87.398332 366.003602 " stroke="#1a1a1a" stroke-width="3" stroke-opacity="1" stroke-miterlimit="4"/><path stroke-linecap="round" transform="matrix(0.357331, 0, 0, 0.357331, 129.230788, 59.485032)" fill="none" stroke-linejoin="round" d="M 87.398332 366.003602 L 133.61771 435.179626 " stroke="#1a1a1a" stroke-width="3" stroke-opacity="1" stroke-miterlimit="4"/><path stroke-linecap="round" transform="matrix(0.357331, 0, 0, 0.357331, 129.230788, 59.485032)" fill="none" stroke-linejoin="round" d="M 133.61771 435.179626 L 202.804665 481.399004 " stroke="#1a1a1a" stroke-width="3" stroke-opacity="1" stroke-miterlimit="4"/><path stroke-linecap="round" transform="matrix(0.357331, 0, 0, 0.357331, 129.230788, 59.485032)" fill="none" stroke-linejoin="round" d="M 202.804665 481.399004 L 284.39914 497.632631 " stroke="#1a1a1a" stroke-width="3" stroke-opacity="1" stroke-miterlimit="4"/><path stroke-linecap="round" transform="matrix(0.357331, 0, 0, 0.357331, 129.230788, 59.485032)" fill="none" stroke-linejoin="round" d="M 284.39914 497.632631 L 366.004546 481.399004 " stroke="#1a1a1a" stroke-width="3" stroke-opacity="1" stroke-miterlimit="4"/><path stroke-linecap="round" transform="matrix(0.357331, 0, 0, 0.357331, 129.230788, 59.485032)" fill="none" stroke-linejoin="round" d="M 366.004546 481.399004 L 435.180569 435.179626 " stroke="#1a1a1a" stroke-width="3" stroke-opacity="1" stroke-miterlimit="4"/><path stroke-linecap="round" transform="matrix(0.357331, 0, 0, 0.357331, 129.230788, 59.485032)" fill="none" stroke-linejoin="round" d="M 435.180569 435.179626 L 481.399948 366.003602 " stroke="#1a1a1a" stroke-width="3" stroke-opacity="1" stroke-miterlimit="4"/><path stroke-linecap="round" transform="matrix(0.357331, 0, 0, 0.357331, 129.230788, 59.485032)" fill="none" stroke-linejoin="round" d="M 481.399948 366.003602 L 497.633575 284.398196 " stroke="#1a1a1a" stroke-width="3" stroke-opacity="1" stroke-miterlimit="4"/><path stroke-linecap="round" transform="matrix(0.357331, 0, 0, 0.357331, 129.230788, 59.485032)" fill="none" stroke-linejoin="round" d="M 497.633575 284.398196 L 481.399948 202.803721 " stroke="#1a1a1a" stroke-width="3" stroke-opacity="1" stroke-miterlimit="4"/><path stroke-linecap="round" transform="matrix(0.357331, 0, 0, 0.357331, 129.230788, 59.485032)" fill="none" stroke-linejoin="round" d="M 481.399948 202.803721 L 435.180569 133.627698 " stroke="#1a1a1a" stroke-width="3" stroke-opacity="1" stroke-miterlimit="4"/><path stroke-linecap="round" transform="matrix(0.357331, 0, 0, 0.357331, 129.230788, 59.485032)" fill="none" stroke-linejoin="round" d="M 435.180569 133.627698 L 366.004546 87.397388 " stroke="#1a1a1a" stroke-width="3" stroke-opacity="1" stroke-miterlimit="4"/><path stroke-linecap="round" transform="matrix(0.357331, 0, 0, 0.357331, 129.230788, 59.485032)" fill="none" stroke-linejoin="round" d="M 366.004546 87.397388 L 284.39914 71.174692 " stroke="#1a1a1a" stroke-width="3" stroke-opacity="1" stroke-miterlimit="4"/><path stroke-linecap="round" transform="matrix(0.357331, 0, 0, 0.357331, 129.230788, 59.485032)" fill="none" stroke-linejoin="round" d="M 255.276996 138.011324 L 201.470993 160.290201 " stroke="#1a1a1a" stroke-width="3" stroke-opacity="1" stroke-miterlimit="4"/><path stroke-linecap="round" transform="matrix(0.357331, 0, 0, 0.357331, 129.230788, 59.485032)" fill="none" stroke-linejoin="round" d="M 201.470993 160.290201 L 160.291145 201.470049 " stroke="#1a1a1a" stroke-width="3" stroke-opacity="1" stroke-miterlimit="4"/><path stroke-linecap="round" transform="matrix(0.357331, 0, 0, 0.357331, 129.230788, 59.485032)" fill="none" stroke-linejoin="round" d="M 160.291145 201.470049 L 138.001336 255.276052 " stroke="#1a1a1a" stroke-width="3" stroke-opacity="1" stroke-miterlimit="4"/><path stroke-linecap="round" transform="matrix(0.357331, 0, 0, 0.357331, 129.230788, 59.485032)" fill="none" stroke-linejoin="round" d="M 138.001336 255.276052 L 138.001336 313.52034 " stroke="#1a1a1a" stroke-width="3" stroke-opacity="1" stroke-miterlimit="4"/><path stroke-linecap="round" transform="matrix(0.357331, 0, 0, 0.357331, 129.230788, 59.485032)" fill="none" stroke-linejoin="round" d="M 138.001336 313.52034 L 160.291145 367.326342 " stroke="#1a1a1a" stroke-width="3" stroke-opacity="1" stroke-miterlimit="4"/><path stroke-linecap="round" transform="matrix(0.357331, 0, 0, 0.357331, 129.230788, 59.485032)" fill="none" stroke-linejoin="round" d="M 160.291145 367.326342 L 201.470993 408.506191 " stroke="#1a1a1a" stroke-width="3" stroke-opacity="1" stroke-miterlimit="4"/><path stroke-linecap="round" transform="matrix(0.357331, 0, 0, 0.357331, 129.230788, 59.485032)" fill="none" stroke-linejoin="round" d="M 201.470993 408.506191 L 255.276996 430.796 " stroke="#1a1a1a" stroke-width="3" stroke-opacity="1" stroke-miterlimit="4"/><path stroke-linecap="round" transform="matrix(0.357331, 0, 0, 0.357331, 129.230788, 59.485032)" fill="none" stroke-linejoin="round" d="M 255.276996 430.796 L 313.521283 430.796 " stroke="#1a1a1a" stroke-width="3" stroke-opacity="1" stroke-miterlimit="4"/><path stroke-linecap="round" transform="matrix(0.357331, 0, 0, 0.357331, 129.230788, 59.485032)" fill="none" stroke-linejoin="round" d="M 313.521283 430.796 L 367.327286 408.506191 " stroke="#1a1a1a" stroke-width="3" stroke-opacity="1" stroke-miterlimit="4"/><path stroke-linecap="round" transform="matrix(0.357331, 0, 0, 0.357331, 129.230788, 59.485032)" fill="none" stroke-linejoin="round" d="M 367.327286 408.506191 L 408.507134 367.326342 " stroke="#1a1a1a" stroke-width="3" stroke-opacity="1" stroke-miterlimit="4"/><path stroke-linecap="round" transform="matrix(0.357331, 0, 0, 0.357331, 129.230788, 59.485032)" fill="none" stroke-linejoin="round" d="M 408.507134 367.326342 L 430.796943 313.52034 " stroke="#1a1a1a" stroke-width="3" stroke-opacity="1" stroke-miterlimit="4"/><path stroke-linecap="round" transform="matrix(0.357331, 0, 0, 0.357331, 129.230788, 59.485032)" fill="none" stroke-linejoin="round" d="M 430.796943 313.52034 L 430.796943 255.276052 " stroke="#1a1a1a" stroke-width="3" stroke-opacity="1" stroke-miterlimit="4"/><path stroke-linecap="round" transform="matrix(0.357331, 0, 0, 0.357331, 129.230788, 59.485032)" fill="none" stroke-linejoin="round" d="M 430.796943 255.276052 L 408.507134 201.470049 " stroke="#1a1a1a" stroke-width="3" stroke-opacity="1" stroke-miterlimit="4"/><path stroke-linecap="round" transform="matrix(0.357331, 0, 0, 0.357331, 129.230788, 59.485032)" fill="none" stroke-linejoin="round" d="M 408.507134 201.470049 L 367.327286 160.290201 " stroke="#1a1a1a" stroke-width="3" stroke-opacity="1" stroke-miterlimit="4"/><path stroke-linecap="round" transform="matrix(0.357331, 0, 0, 0.357331, 129.230788, 59.485032)" fill="none" stroke-linejoin="round" d="M 367.327286 160.290201 L 313.521283 138.011324 " stroke="#1a1a1a" stroke-width="3" stroke-opacity="1" stroke-miterlimit="4"/><path stroke-linecap="round" transform="matrix(0.357331, 0, 0, 0.357331, 129.230788, 59.485032)" fill="none" stroke-linejoin="round" d="M 313.521283 138.011324 L 255.276996 138.011324 " stroke="#1a1a1a" stroke-width="3" stroke-opacity="1" stroke-miterlimit="4"/><path stroke-linecap="round" transform="matrix(0.357331, 0, 0, 0.357331, 129.230788, 59.485032)" fill="none" stroke-linejoin="round" d="M 284.39914 71.174692 L 255.276996 138.011324 " stroke="#1a1a1a" stroke-width="3" stroke-opacity="1" stroke-miterlimit="4"/><path stroke-linecap="round" transform="matrix(0.357331, 0, 0, 0.357331, 129.230788, 59.485032)" fill="none" stroke-linejoin="round" d="M 284.39914 71.174692 L 313.521283 138.011324 " stroke="#1a1a1a" stroke-width="3" stroke-opacity="1" stroke-miterlimit="4"/><path stroke-linecap="round" transform="matrix(0.357331, 0, 0, 0.357331, 129.230788, 59.485032)" fill="none" stroke-linejoin="round" d="M 202.804665 87.397388 L 201.470993 160.290201 " stroke="#1a1a1a" stroke-width="3" stroke-opacity="1" stroke-miterlimit="4"/><path stroke-linecap="round" transform="matrix(0.357331, 0, 0, 0.357331, 129.230788, 59.485032)" fill="none" stroke-linejoin="round" d="M 202.804665 87.397388 L 255.276996 138.011324 " stroke="#1a1a1a" stroke-width="3" stroke-opacity="1" stroke-miterlimit="4"/><path stroke-linecap="round" transform="matrix(0.357331, 0, 0, 0.357331, 129.230788, 59.485032)" fill="none" stroke-linejoin="round" d="M 133.61771 133.627698 L 160.291145 201.470049 " stroke="#1a1a1a" stroke-width="3" stroke-opacity="1" stroke-miterlimit="4"/><path stroke-linecap="round" transform="matrix(0.357331, 0, 0, 0.357331, 129.230788, 59.485032)" fill="none" stroke-linejoin="round" d="M 133.61771 133.627698 L 201.470993 160.290201 " stroke="#1a1a1a" stroke-width="3" stroke-opacity="1" stroke-miterlimit="4"/><path stroke-linecap="round" transform="matrix(0.357331, 0, 0, 0.357331, 129.230788, 59.485032)" fill="none" stroke-linejoin="round" d="M 87.398332 202.803721 L 138.001336 255.276052 " stroke="#1a1a1a" stroke-width="3" stroke-opacity="1" stroke-miterlimit="4"/><path stroke-linecap="round" transform="matrix(0.357331, 0, 0, 0.357331, 129.230788, 59.485032)" fill="none" stroke-linejoin="round" d="M 87.398332 202.803721 L 160.291145 201.470049 " stroke="#1a1a1a" stroke-width="3" stroke-opacity="1" stroke-miterlimit="4"/><path stroke-linecap="round" transform="matrix(0.357331, 0, 0, 0.357331, 129.230788, 59.485032)" fill="none" stroke-linejoin="round" d="M 71.164704 284.398196 L 138.001336 313.52034 " stroke="#1a1a1a" stroke-width="3" stroke-opacity="1" stroke-miterlimit="4"/><path stroke-linecap="round" transform="matrix(0.357331, 0, 0, 0.357331, 129.230788, 59.485032)" fill="none" stroke-linejoin="round" d="M 71.164704 284.398196 L 138.001336 255.276052 " stroke="#1a1a1a" stroke-width="3" stroke-opacity="1" stroke-miterlimit="4"/><path stroke-linecap="round" transform="matrix(0.357331, 0, 0, 0.357331, 129.230788, 59.485032)" fill="none" stroke-linejoin="round" d="M 87.398332 366.003602 L 160.291145 367.326342 " stroke="#1a1a1a" stroke-width="3" stroke-opacity="1" stroke-miterlimit="4"/><path stroke-linecap="round" transform="matrix(0.357331, 0, 0, 0.357331, 129.230788, 59.485032)" fill="none" stroke-linejoin="round" d="M 87.398332 366.003602 L 138.001336 313.52034 " stroke="#1a1a1a" stroke-width="3" stroke-opacity="1" stroke-miterlimit="4"/><path stroke-linecap="round" transform="matrix(0.357331, 0, 0, 0.357331, 129.230788, 59.485032)" fill="none" stroke-linejoin="round" d="M 133.61771 435.179626 L 201.470993 408.506191 " stroke="#1a1a1a" stroke-width="3" stroke-opacity="1" stroke-miterlimit="4"/><path stroke-linecap="round" transform="matrix(0.357331, 0, 0, 0.357331, 129.230788, 59.485032)" fill="none" stroke-linejoin="round" d="M 133.61771 435.179626 L 160.291145 367.326342 " stroke="#1a1a1a" stroke-width="3" stroke-opacity="1" stroke-miterlimit="4"/><path stroke-linecap="round" transform="matrix(0.357331, 0, 0, 0.357331, 129.230788, 59.485032)" fill="none" stroke-linejoin="round" d="M 202.804665 481.399004 L 255.276996 430.796 " stroke="#1a1a1a" stroke-width="3" stroke-opacity="1" stroke-miterlimit="4"/><path stroke-linecap="round" transform="matrix(0.357331, 0, 0, 0.357331, 129.230788, 59.485032)" fill="none" stroke-linejoin="round" d="M 202.804665 481.399004 L 201.470993 408.506191 " stroke="#1a1a1a" stroke-width="3" stroke-opacity="1" stroke-miterlimit="4"/><path stroke-linecap="round" transform="matrix(0.357331, 0, 0, 0.357331, 129.230788, 59.485032)" fill="none" stroke-linejoin="round" d="M 284.39914 497.632631 L 313.521283 430.796 " stroke="#1a1a1a" stroke-width="3" stroke-opacity="1" stroke-miterlimit="4"/><path stroke-linecap="round" transform="matrix(0.357331, 0, 0, 0.357331, 129.230788, 59.485032)" fill="none" stroke-linejoin="round" d="M 284.39914 497.632631 L 255.276996 430.796 " stroke="#1a1a1a" stroke-width="3" stroke-opacity="1" stroke-miterlimit="4"/><path stroke-linecap="round" transform="matrix(0.357331, 0, 0, 0.357331, 129.230788, 59.485032)" fill="none" stroke-linejoin="round" d="M 366.004546 481.399004 L 367.327286 408.506191 " stroke="#1a1a1a" stroke-width="3" stroke-opacity="1" stroke-miterlimit="4"/><path stroke-linecap="round" transform="matrix(0.357331, 0, 0, 0.357331, 129.230788, 59.485032)" fill="none" stroke-linejoin="round" d="M 366.004546 481.399004 L 313.521283 430.796 " stroke="#1a1a1a" stroke-width="3" stroke-opacity="1" stroke-miterlimit="4"/><path stroke-linecap="round" transform="matrix(0.357331, 0, 0, 0.357331, 129.230788, 59.485032)" fill="none" stroke-linejoin="round" d="M 435.180569 435.179626 L 408.507134 367.326342 " stroke="#1a1a1a" stroke-width="3" stroke-opacity="1" stroke-miterlimit="4"/><path stroke-linecap="round" transform="matrix(0.357331, 0, 0, 0.357331, 129.230788, 59.485032)" fill="none" stroke-linejoin="round" d="M 435.180569 435.179626 L 367.327286 408.506191 " stroke="#1a1a1a" stroke-width="3" stroke-opacity="1" stroke-miterlimit="4"/><path stroke-linecap="round" transform="matrix(0.357331, 0, 0, 0.357331, 129.230788, 59.485032)" fill="none" stroke-linejoin="round" d="M 481.399948 366.003602 L 430.796943 313.52034 " stroke="#1a1a1a" stroke-width="3" stroke-opacity="1" stroke-miterlimit="4"/><path stroke-linecap="round" transform="matrix(0.357331, 0, 0, 0.357331, 129.230788, 59.485032)" fill="none" stroke-linejoin="round" d="M 481.399948 366.003602 L 408.507134 367.326342 " stroke="#1a1a1a" stroke-width="3" stroke-opacity="1" stroke-miterlimit="4"/><path stroke-linecap="round" transform="matrix(0.357331, 0, 0, 0.357331, 129.230788, 59.485032)" fill="none" stroke-linejoin="round" d="M 497.633575 284.398196 L 430.796943 255.276052 " stroke="#1a1a1a" stroke-width="3" stroke-opacity="1" stroke-miterlimit="4"/><path stroke-linecap="round" transform="matrix(0.357331, 0, 0, 0.357331, 129.230788, 59.485032)" fill="none" stroke-linejoin="round" d="M 497.633575 284.398196 L 430.796943 313.52034 " stroke="#1a1a1a" stroke-width="3" stroke-opacity="1" stroke-miterlimit="4"/><path stroke-linecap="round" transform="matrix(0.357331, 0, 0, 0.357331, 129.230788, 59.485032)" fill="none" stroke-linejoin="round" d="M 481.399948 202.803721 L 408.507134 201.470049 " stroke="#1a1a1a" stroke-width="3" stroke-opacity="1" stroke-miterlimit="4"/><path stroke-linecap="round" transform="matrix(0.357331, 0, 0, 0.357331, 129.230788, 59.485032)" fill="none" stroke-linejoin="round" d="M 481.399948 202.803721 L 430.796943 255.276052 " stroke="#1a1a1a" stroke-width="3" stroke-opacity="1" stroke-miterlimit="4"/><path stroke-linecap="round" transform="matrix(0.357331, 0, 0, 0.357331, 129.230788, 59.485032)" fill="none" stroke-linejoin="round" d="M 435.180569 133.627698 L 367.327286 160.290201 " stroke="#1a1a1a" stroke-width="3" stroke-opacity="1" stroke-miterlimit="4"/><path stroke-linecap="round" transform="matrix(0.357331, 0, 0, 0.357331, 129.230788, 59.485032)" fill="none" stroke-linejoin="round" d="M 435.180569 133.627698 L 408.507134 201.470049 " stroke="#1a1a1a" stroke-width="3" stroke-opacity="1" stroke-miterlimit="4"/><path stroke-linecap="round" transform="matrix(0.357331, 0, 0, 0.357331, 129.230788, 59.485032)" fill="none" stroke-linejoin="round" d="M 366.004546 87.397388 L 313.521283 138.011324 " stroke="#1a1a1a" stroke-width="3" stroke-opacity="1" stroke-miterlimit="4"/><path stroke-linecap="round" transform="matrix(0.357331, 0, 0, 0.357331, 129.230788, 59.485032)" fill="none" stroke-linejoin="round" d="M 366.004546 87.397388 L 367.327286 160.290201 " stroke="#1a1a1a" stroke-width="3" stroke-opacity="1" stroke-miterlimit="4"/><path fill="#1a1a1a" d="M 230.855469 89.867188 C 232.167969 89.867188 233.429688 89.347656 234.359375 88.417969 C 235.285156 87.488281 235.808594 86.230469 235.808594 84.917969 C 235.808594 83.601562 235.285156 82.34375 234.359375 81.414062 C 233.429688 80.484375 232.167969 79.964844 230.855469 79.964844 C 229.542969 79.964844 228.28125 80.484375 227.355469 81.414062 C 226.425781 82.34375 225.902344 83.601562 225.902344 84.917969 C 225.902344 86.230469 226.425781 87.488281 227.355469 88.417969 C 228.28125 89.347656 229.542969 89.867188 230.855469 89.867188 Z M 230.855469 89.867188 " fill-opacity="1" fill-rule="nonzero"/><path fill="#1a1a1a" d="M 220.449219 113.75 C 221.765625 113.75 223.023438 113.230469 223.953125 112.300781 C 224.882812 111.371094 225.402344 110.113281 225.402344 108.800781 C 225.402344 107.484375 224.882812 106.226562 223.953125 105.296875 C 223.023438 104.367188 221.765625 103.847656 220.449219 103.847656 C 219.136719 103.847656 217.878906 104.367188 216.949219 105.296875 C 216.019531 106.226562 215.496094 107.484375 215.496094 108.800781 C 215.496094 110.113281 216.019531 111.371094 216.949219 112.300781 C 217.878906 113.230469 219.136719 113.75 220.449219 113.75 Z M 220.449219 113.75 " fill-opacity="1" fill-rule="nonzero"/><path fill="#1a1a1a" d="M 201.699219 95.667969 C 203.011719 95.667969 204.269531 95.148438 205.199219 94.21875 C 206.128906 93.289062 206.648438 92.03125 206.648438 90.714844 C 206.648438 89.402344 206.128906 88.144531 205.199219 87.214844 C 204.269531 86.285156 203.011719 85.761719 201.699219 85.761719 C 200.382812 85.761719 199.125 86.285156 198.195312 87.214844 C 197.265625 88.144531 196.746094 89.402344 196.746094 90.714844 C 196.746094 92.03125 197.265625 93.289062 198.195312 94.21875 C 199.125 95.148438 200.382812 95.667969 201.699219 95.667969 Z M 201.699219 95.667969 " fill-opacity="1" fill-rule="nonzero"/><path fill="#1a1a1a" d="M 201.222656 121.714844 C 202.539062 121.714844 203.796875 121.195312 204.726562 120.265625 C 205.65625 119.335938 206.175781 118.078125 206.175781 116.761719 C 206.175781 115.449219 205.65625 114.191406 204.726562 113.261719 C 203.796875 112.332031 202.539062 111.808594 201.222656 111.808594 C 199.910156 111.808594 198.652344 112.332031 197.722656 113.261719 C 196.792969 114.191406 196.269531 115.449219 196.269531 116.761719 C 196.269531 118.078125 196.792969 119.335938 197.722656 120.265625 C 198.652344 121.195312 199.910156 121.714844 201.222656 121.714844 Z M 201.222656 121.714844 " fill-opacity="1" fill-rule="nonzero"/><path fill="#1a1a1a" d="M 176.976562 112.183594 C 178.292969 112.183594 179.550781 111.664062 180.480469 110.734375 C 181.410156 109.804688 181.929688 108.546875 181.929688 107.234375 C 181.929688 105.917969 181.410156 104.660156 180.480469 103.730469 C 179.550781 102.800781 178.292969 102.28125 176.976562 102.28125 C 175.664062 102.28125 174.40625 102.800781 173.476562 103.730469 C 172.546875 104.660156 172.027344 105.917969 172.027344 107.234375 C 172.027344 108.546875 172.546875 109.804688 173.476562 110.734375 C 174.40625 111.664062 175.664062 112.183594 176.976562 112.183594 Z M 176.976562 112.183594 " fill-opacity="1" fill-rule="nonzero"/><path fill="#1a1a1a" d="M 186.507812 136.429688 C 187.820312 136.429688 189.082031 135.910156 190.011719 134.980469 C 190.9375 134.050781 191.460938 132.792969 191.460938 131.476562 C 191.460938 130.164062 190.9375 128.90625 190.011719 127.976562 C 189.082031 127.046875 187.820312 126.527344 186.507812 126.527344 C 185.195312 126.527344 183.933594 127.046875 183.007812 127.976562 C 182.078125 128.90625 181.554688 130.164062 181.554688 131.476562 C 181.554688 132.792969 182.078125 134.050781 183.007812 134.980469 C 183.933594 135.910156 185.195312 136.429688 186.507812 136.429688 Z M 186.507812 136.429688 " fill-opacity="1" fill-rule="nonzero"/><path fill="#1a1a1a" d="M 160.460938 136.90625 C 161.773438 136.90625 163.035156 136.382812 163.964844 135.453125 C 164.890625 134.523438 165.414062 133.265625 165.414062 131.953125 C 165.414062 130.636719 164.890625 129.378906 163.964844 128.449219 C 163.035156 127.519531 161.773438 127 160.460938 127 C 159.148438 127 157.886719 127.519531 156.960938 128.449219 C 156.03125 129.378906 155.507812 130.636719 155.507812 131.953125 C 155.507812 133.265625 156.03125 134.523438 156.960938 135.453125 C 157.886719 136.382812 159.148438 136.90625 160.460938 136.90625 Z M 160.460938 136.90625 " fill-opacity="1" fill-rule="nonzero"/><path fill="#1a1a1a" d="M 178.542969 155.65625 C 179.859375 155.65625 181.117188 155.136719 182.046875 154.207031 C 182.976562 153.277344 183.496094 152.019531 183.496094 150.703125 C 183.496094 149.390625 182.976562 148.132812 182.046875 147.203125 C 181.117188 146.273438 179.859375 145.753906 178.542969 145.753906 C 177.230469 145.753906 175.972656 146.273438 175.042969 147.203125 C 174.113281 148.132812 173.59375 149.390625 173.59375 150.703125 C 173.59375 152.019531 174.113281 153.277344 175.042969 154.207031 C 175.972656 155.136719 177.230469 155.65625 178.542969 155.65625 Z M 178.542969 155.65625 " fill-opacity="1" fill-rule="nonzero"/><path fill="#1a1a1a" d="M 154.660156 166.0625 C 155.976562 166.0625 157.234375 165.539062 158.164062 164.613281 C 159.09375 163.683594 159.613281 162.421875 159.613281 161.109375 C 159.613281 159.796875 159.09375 158.535156 158.164062 157.609375 C 157.234375 156.679688 155.976562 156.15625 154.660156 156.15625 C 153.347656 156.15625 152.089844 156.679688 151.160156 157.609375 C 150.230469 158.535156 149.710938 159.796875 149.710938 161.109375 C 149.710938 162.421875 150.230469 163.683594 151.160156 164.613281 C 152.089844 165.539062 153.347656 166.0625 154.660156 166.0625 Z M 154.660156 166.0625 " fill-opacity="1" fill-rule="nonzero"/><path fill="#1a1a1a" d="M 178.542969 176.46875 C 179.859375 176.46875 181.117188 175.945312 182.046875 175.015625 C 182.976562 174.089844 183.496094 172.828125 183.496094 171.515625 C 183.496094 170.203125 182.976562 168.941406 182.046875 168.011719 C 181.117188 167.085938 179.859375 166.5625 178.542969 166.5625 C 177.230469 166.5625 175.972656 167.085938 175.042969 168.011719 C 174.113281 168.941406 173.59375 170.203125 173.59375 171.515625 C 173.59375 172.828125 174.113281 174.089844 175.042969 175.015625 C 175.972656 175.945312 177.230469 176.46875 178.542969 176.46875 Z M 178.542969 176.46875 " fill-opacity="1" fill-rule="nonzero"/><path fill="#1a1a1a" d="M 160.460938 195.222656 C 161.773438 195.222656 163.035156 194.699219 163.964844 193.769531 C 164.890625 192.839844 165.414062 191.582031 165.414062 190.269531 C 165.414062 188.953125 164.890625 187.695312 163.964844 186.765625 C 163.035156 185.835938 161.773438 185.316406 160.460938 185.316406 C 159.148438 185.316406 157.886719 185.835938 156.960938 186.765625 C 156.03125 187.695312 155.507812 188.953125 155.507812 190.269531 C 155.507812 191.582031 156.03125 192.839844 156.960938 193.769531 C 157.886719 194.699219 159.148438 195.222656 160.460938 195.222656 Z M 160.460938 195.222656 " fill-opacity="1" fill-rule="nonzero"/><path fill="#1a1a1a" d="M 186.507812 195.695312 C 187.820312 195.695312 189.082031 195.171875 190.011719 194.242188 C 190.9375 193.316406 191.460938 192.054688 191.460938 190.742188 C 191.460938 189.429688 190.9375 188.167969 190.011719 187.238281 C 189.082031 186.3125 187.820312 185.789062 186.507812 185.789062 C 185.195312 185.789062 183.933594 186.3125 183.007812 187.238281 C 182.078125 188.167969 181.554688 189.429688 181.554688 190.742188 C 181.554688 192.054688 182.078125 193.316406 183.007812 194.242188 C 183.933594 195.171875 185.195312 195.695312 186.507812 195.695312 Z M 186.507812 195.695312 " fill-opacity="1" fill-rule="nonzero"/><path fill="#1a1a1a" d="M 176.976562 219.941406 C 178.292969 219.941406 179.550781 219.417969 180.480469 218.488281 C 181.410156 217.5625 181.929688 216.300781 181.929688 214.988281 C 181.929688 213.675781 181.410156 212.414062 180.480469 211.484375 C 179.550781 210.554688 178.292969 210.035156 176.976562 210.035156 C 175.664062 210.035156 174.40625 210.554688 173.476562 211.484375 C 172.546875 212.414062 172.027344 213.675781 172.027344 214.988281 C 172.027344 216.300781 172.546875 217.5625 173.476562 218.488281 C 174.40625 219.417969 175.664062 219.941406 176.976562 219.941406 Z M 176.976562 219.941406 " fill-opacity="1" fill-rule="nonzero"/><path fill="#1a1a1a" d="M 201.222656 210.410156 C 202.539062 210.410156 203.796875 209.886719 204.726562 208.960938 C 205.65625 208.03125 206.175781 206.769531 206.175781 205.457031 C 206.175781 204.144531 205.65625 202.882812 204.726562 201.957031 C 203.796875 201.027344 202.539062 200.503906 201.222656 200.503906 C 199.910156 200.503906 198.652344 201.027344 197.722656 201.957031 C 196.792969 202.882812 196.269531 204.144531 196.269531 205.457031 C 196.269531 206.769531 196.792969 208.03125 197.722656 208.960938 C 198.652344 209.886719 199.910156 210.410156 201.222656 210.410156 Z M 201.222656 210.410156 " fill-opacity="1" fill-rule="nonzero"/><path fill="#1a1a1a" d="M 201.699219 236.457031 C 203.011719 236.457031 204.269531 235.933594 205.199219 235.007812 C 206.128906 234.078125 206.648438 232.816406 206.648438 231.503906 C 206.648438 230.191406 206.128906 228.929688 205.199219 228.003906 C 204.269531 227.074219 203.011719 226.550781 201.699219 226.550781 C 200.382812 226.550781 199.125 227.074219 198.195312 228.003906 C 197.265625 228.929688 196.746094 230.191406 196.746094 231.503906 C 196.746094 232.816406 197.265625 234.078125 198.195312 235.007812 C 199.125 235.933594 200.382812 236.457031 201.699219 236.457031 Z M 201.699219 236.457031 " fill-opacity="1" fill-rule="nonzero"/><path fill="#1a1a1a" d="M 220.449219 218.375 C 221.765625 218.375 223.023438 217.851562 223.953125 216.921875 C 224.882812 215.996094 225.402344 214.734375 225.402344 213.421875 C 225.402344 212.109375 224.882812 210.847656 223.953125 209.917969 C 223.023438 208.988281 221.765625 208.46875 220.449219 208.46875 C 219.136719 208.46875 217.878906 208.988281 216.949219 209.917969 C 216.019531 210.847656 215.496094 212.109375 215.496094 213.421875 C 215.496094 214.734375 216.019531 215.996094 216.949219 216.921875 C 217.878906 217.851562 219.136719 218.375 220.449219 218.375 Z M 220.449219 218.375 " fill-opacity="1" fill-rule="nonzero"/><path fill="#1a1a1a" d="M 230.855469 242.257812 C 232.167969 242.257812 233.429688 241.734375 234.359375 240.804688 C 235.285156 239.878906 235.808594 238.617188 235.808594 237.304688 C 235.808594 235.992188 235.285156 234.730469 234.359375 233.800781 C 233.429688 232.875 232.167969 232.351562 230.855469 232.351562 C 229.542969 232.351562 228.28125 232.875 227.355469 233.800781 C 226.425781 234.730469 225.902344 235.992188 225.902344 237.304688 C 225.902344 238.617188 226.425781 239.878906 227.355469 240.804688 C 228.28125 241.734375 229.542969 242.257812 230.855469 242.257812 Z M 230.855469 242.257812 " fill-opacity="1" fill-rule="nonzero"/><path fill="#1a1a1a" d="M 241.261719 218.375 C 242.574219 218.375 243.835938 217.851562 244.761719 216.921875 C 245.691406 215.996094 246.214844 214.734375 246.214844 213.421875 C 246.214844 212.109375 245.691406 210.847656 244.761719 209.917969 C 243.835938 208.988281 242.574219 208.46875 241.261719 208.46875 C 239.949219 208.46875 238.6875 208.988281 237.757812 209.917969 C 236.832031 210.847656 236.308594 212.109375 236.308594 213.421875 C 236.308594 214.734375 236.832031 215.996094 237.757812 216.921875 C 238.6875 217.851562 239.949219 218.375 241.261719 218.375 Z M 241.261719 218.375 " fill-opacity="1" fill-rule="nonzero"/><path fill="#1a1a1a" d="M 260.015625 236.457031 C 261.328125 236.457031 262.585938 235.933594 263.515625 235.007812 C 264.445312 234.078125 264.964844 232.816406 264.964844 231.503906 C 264.964844 230.191406 264.445312 228.929688 263.515625 228.003906 C 262.585938 227.074219 261.328125 226.550781 260.015625 226.550781 C 258.699219 226.550781 257.441406 227.074219 256.511719 228.003906 C 255.582031 228.929688 255.0625 230.191406 255.0625 231.503906 C 255.0625 232.816406 255.582031 234.078125 256.511719 235.007812 C 257.441406 235.933594 258.699219 236.457031 260.015625 236.457031 Z M 260.015625 236.457031 " fill-opacity="1" fill-rule="nonzero"/><path fill="#1a1a1a" d="M 260.488281 210.410156 C 261.800781 210.410156 263.0625 209.886719 263.988281 208.960938 C 264.917969 208.03125 265.441406 206.769531 265.441406 205.457031 C 265.441406 204.144531 264.917969 202.882812 263.988281 201.957031 C 263.0625 201.027344 261.800781 200.503906 260.488281 200.503906 C 259.175781 200.503906 257.914062 201.027344 256.984375 201.957031 C 256.058594 202.882812 255.535156 204.144531 255.535156 205.457031 C 255.535156 206.769531 256.058594 208.03125 256.984375 208.960938 C 257.914062 209.886719 259.175781 210.410156 260.488281 210.410156 Z M 260.488281 210.410156 " fill-opacity="1" fill-rule="nonzero"/><path fill="#1a1a1a" d="M 284.734375 219.941406 C 286.046875 219.941406 287.304688 219.417969 288.234375 218.488281 C 289.164062 217.5625 289.6875 216.300781 289.6875 214.988281 C 289.6875 213.675781 289.164062 212.414062 288.234375 211.484375 C 287.304688 210.554688 286.046875 210.035156 284.734375 210.035156 C 283.417969 210.035156 282.160156 210.554688 281.230469 211.484375 C 280.300781 212.414062 279.78125 213.675781 279.78125 214.988281 C 279.78125 216.300781 280.300781 217.5625 281.230469 218.488281 C 282.160156 219.417969 283.417969 219.941406 284.734375 219.941406 Z M 284.734375 219.941406 " fill-opacity="1" fill-rule="nonzero"/><path fill="#1a1a1a" d="M 275.203125 195.695312 C 276.515625 195.695312 277.777344 195.171875 278.703125 194.242188 C 279.632812 193.316406 280.15625 192.054688 280.15625 190.742188 C 280.15625 189.429688 279.632812 188.167969 278.703125 187.238281 C 277.777344 186.3125 276.515625 185.789062 275.203125 185.789062 C 273.890625 185.789062 272.628906 186.3125 271.699219 187.238281 C 270.773438 188.167969 270.25 189.429688 270.25 190.742188 C 270.25 192.054688 270.773438 193.316406 271.699219 194.242188 C 272.628906 195.171875 273.890625 195.695312 275.203125 195.695312 Z M 275.203125 195.695312 " fill-opacity="1" fill-rule="nonzero"/><path fill="#1a1a1a" d="M 301.25 195.222656 C 302.5625 195.222656 303.824219 194.699219 304.75 193.769531 C 305.679688 192.839844 306.203125 191.582031 306.203125 190.269531 C 306.203125 188.953125 305.679688 187.695312 304.75 186.765625 C 303.824219 185.835938 302.5625 185.316406 301.25 185.316406 C 299.9375 185.316406 298.675781 185.835938 297.746094 186.765625 C 296.820312 187.695312 296.296875 188.953125 296.296875 190.269531 C 296.296875 191.582031 296.820312 192.839844 297.746094 193.769531 C 298.675781 194.699219 299.9375 195.222656 301.25 195.222656 Z M 301.25 195.222656 " fill-opacity="1" fill-rule="nonzero"/><path fill="#1a1a1a" d="M 283.167969 176.46875 C 284.480469 176.46875 285.738281 175.945312 286.667969 175.015625 C 287.597656 174.089844 288.121094 172.828125 288.121094 171.515625 C 288.121094 170.203125 287.597656 168.941406 286.667969 168.011719 C 285.738281 167.085938 284.480469 166.5625 283.167969 166.5625 C 281.851562 166.5625 280.59375 167.085938 279.664062 168.011719 C 278.734375 168.941406 278.214844 170.203125 278.214844 171.515625 C 278.214844 172.828125 278.734375 174.089844 279.664062 175.015625 C 280.59375 175.945312 281.851562 176.46875 283.167969 176.46875 Z M 283.167969 176.46875 " fill-opacity="1" fill-rule="nonzero"/><path fill="#1a1a1a" d="M 307.050781 166.0625 C 308.363281 166.0625 309.625 165.539062 310.550781 164.613281 C 311.480469 163.683594 312.003906 162.421875 312.003906 161.109375 C 312.003906 159.796875 311.480469 158.535156 310.550781 157.609375 C 309.625 156.679688 308.363281 156.15625 307.050781 156.15625 C 305.738281 156.15625 304.476562 156.679688 303.546875 157.609375 C 302.617188 158.535156 302.097656 159.796875 302.097656 161.109375 C 302.097656 162.421875 302.617188 163.683594 303.546875 164.613281 C 304.476562 165.539062 305.738281 166.0625 307.050781 166.0625 Z M 307.050781 166.0625 " fill-opacity="1" fill-rule="nonzero"/><path fill="#1a1a1a" d="M 283.167969 155.65625 C 284.480469 155.65625 285.738281 155.136719 286.667969 154.207031 C 287.597656 153.277344 288.121094 152.019531 288.121094 150.703125 C 288.121094 149.390625 287.597656 148.132812 286.667969 147.203125 C 285.738281 146.273438 284.480469 145.753906 283.167969 145.753906 C 281.851562 145.753906 280.59375 146.273438 279.664062 147.203125 C 278.734375 148.132812 278.214844 149.390625 278.214844 150.703125 C 278.214844 152.019531 278.734375 153.277344 279.664062 154.207031 C 280.59375 155.136719 281.851562 155.65625 283.167969 155.65625 Z M 283.167969 155.65625 " fill-opacity="1" fill-rule="nonzero"/><path fill="#1a1a1a" d="M 301.25 136.90625 C 302.5625 136.90625 303.824219 136.382812 304.75 135.453125 C 305.679688 134.523438 306.203125 133.265625 306.203125 131.953125 C 306.203125 130.636719 305.679688 129.378906 304.75 128.449219 C 303.824219 127.519531 302.5625 127 301.25 127 C 299.9375 127 298.675781 127.519531 297.746094 128.449219 C 296.820312 129.378906 296.296875 130.636719 296.296875 131.953125 C 296.296875 133.265625 296.820312 134.523438 297.746094 135.453125 C 298.675781 136.382812 299.9375 136.90625 301.25 136.90625 Z M 301.25 136.90625 " fill-opacity="1" fill-rule="nonzero"/><path fill="#1a1a1a" d="M 275.203125 136.429688 C 276.515625 136.429688 277.777344 135.910156 278.703125 134.980469 C 279.632812 134.050781 280.15625 132.792969 280.15625 131.476562 C 280.15625 130.164062 279.632812 128.90625 278.703125 127.976562 C 277.777344 127.046875 276.515625 126.527344 275.203125 126.527344 C 273.890625 126.527344 272.628906 127.046875 271.699219 127.976562 C 270.773438 128.90625 270.25 130.164062 270.25 131.476562 C 270.25 132.792969 270.773438 134.050781 271.699219 134.980469 C 272.628906 135.910156 273.890625 136.429688 275.203125 136.429688 Z M 275.203125 136.429688 " fill-opacity="1" fill-rule="nonzero"/><path fill="#1a1a1a" d="M 284.734375 112.183594 C 286.046875 112.183594 287.304688 111.664062 288.234375 110.734375 C 289.164062 109.804688 289.6875 108.546875 289.6875 107.234375 C 289.6875 105.917969 289.164062 104.660156 288.234375 103.730469 C 287.304688 102.800781 286.046875 102.28125 284.734375 102.28125 C 283.417969 102.28125 282.160156 102.800781 281.230469 103.730469 C 280.300781 104.660156 279.78125 105.917969 279.78125 107.234375 C 279.78125 108.546875 280.300781 109.804688 281.230469 110.734375 C 282.160156 111.664062 283.417969 112.183594 284.734375 112.183594 Z M 284.734375 112.183594 " fill-opacity="1" fill-rule="nonzero"/><path fill="#1a1a1a" d="M 260.488281 121.714844 C 261.800781 121.714844 263.0625 121.195312 263.988281 120.265625 C 264.917969 119.335938 265.441406 118.078125 265.441406 116.761719 C 265.441406 115.449219 264.917969 114.191406 263.988281 113.261719 C 263.0625 112.332031 261.800781 111.808594 260.488281 111.808594 C 259.175781 111.808594 257.914062 112.332031 256.984375 113.261719 C 256.058594 114.191406 255.535156 115.449219 255.535156 116.761719 C 255.535156 118.078125 256.058594 119.335938 256.984375 120.265625 C 257.914062 121.195312 259.175781 121.714844 260.488281 121.714844 Z M 260.488281 121.714844 " fill-opacity="1" fill-rule="nonzero"/><path fill="#1a1a1a" d="M 260.015625 95.667969 C 261.328125 95.667969 262.585938 95.148438 263.515625 94.21875 C 264.445312 93.289062 264.964844 92.03125 264.964844 90.714844 C 264.964844 89.402344 264.445312 88.144531 263.515625 87.214844 C 262.585938 86.285156 261.328125 85.761719 260.015625 85.761719 C 258.699219 85.761719 257.441406 86.285156 256.511719 87.214844 C 255.582031 88.144531 255.0625 89.402344 255.0625 90.714844 C 255.0625 92.03125 255.582031 93.289062 256.511719 94.21875 C 257.441406 95.148438 258.699219 95.667969 260.015625 95.667969 Z M 260.015625 95.667969 " fill-opacity="1" fill-rule="nonzero"/><path fill="#1a1a1a" d="M 241.261719 113.75 C 242.574219 113.75 243.835938 113.230469 244.761719 112.300781 C 245.691406 111.371094 246.214844 110.113281 246.214844 108.800781 C 246.214844 107.484375 245.691406 106.226562 244.761719 105.296875 C 243.835938 104.367188 242.574219 103.847656 241.261719 103.847656 C 239.949219 103.847656 238.6875 104.367188 237.757812 105.296875 C 236.832031 106.226562 236.308594 107.484375 236.308594 108.800781 C 236.308594 110.113281 236.832031 111.371094 237.757812 112.300781 C 238.6875 113.230469 239.949219 113.75 241.261719 113.75 Z M 241.261719 113.75 " fill-opacity="1" fill-rule="nonzero"/><g transform="matrix(1, 0, 0, 1, 382, 27)"><g clip-path="url(#2a5505582d)"><g fill="#1a1a1a" fill-opacity="1"><g transform="translate(1.125663, 200.673652)"><g><path d="M 56.15625 -133.109375 C 70.664062 -133.109375 83.234375 -130.398438 93.859375 -124.984375 C 104.492188 -119.578125 112.644531 -111.84375 118.3125 -101.78125 C 123.976562 -91.726562 126.8125 -79.890625 126.8125 -66.265625 C 126.8125 -52.648438 123.976562 -40.84375 118.3125 -30.84375 C 112.644531 -20.851562 104.492188 -13.210938 93.859375 -7.921875 C 83.234375 -2.640625 70.664062 0 56.15625 0 L 14.703125 0 L 14.703125 -133.109375 Z M 56.15625 -14.328125 C 73.34375 -14.328125 86.453125 -18.878906 95.484375 -27.984375 C 104.523438 -37.085938 109.046875 -49.847656 109.046875 -66.265625 C 109.046875 -82.816406 104.492188 -95.738281 95.390625 -105.03125 C 86.285156 -114.332031 73.207031 -118.984375 56.15625 -118.984375 L 32.078125 -118.984375 L 32.078125 -14.328125 Z M 56.15625 -14.328125 "/></g></g></g><g fill="#1a1a1a" fill-opacity="1"><g transform="translate(245.77672, 200.673652)"><g><path d="M 93.390625 -29.609375 L 35.328125 -29.609375 L 24.640625 0 L 6.296875 0 L 54.4375 -132.359375 L 74.484375 -132.359375 L 122.421875 0 L 104.09375 0 Z M 88.421875 -43.734375 L 64.359375 -110.96875 L 40.296875 -43.734375 Z M 88.421875 -43.734375 "/></g></g></g><g fill="#1a1a1a" fill-opacity="1"><g transform="translate(484.125435, 200.673652)"><g><path d="M 93.390625 -29.609375 L 35.328125 -29.609375 L 24.640625 0 L 6.296875 0 L 54.4375 -132.359375 L 74.484375 -132.359375 L 122.421875 0 L 104.09375 0 Z M 88.421875 -43.734375 L 64.359375 -110.96875 L 40.296875 -43.734375 Z M 88.421875 -43.734375 "/></g></g></g><g fill="#1a1a1a" fill-opacity="1"><g transform="translate(722.474103, 200.673652)"><g><path d="M 56.90625 1.34375 C 48.125 1.34375 40.265625 -0.210938 33.328125 -3.328125 C 26.390625 -6.453125 20.945312 -10.785156 17 -16.328125 C 13.050781 -21.867188 11.015625 -28.265625 10.890625 -35.515625 L 29.40625 -35.515625 C 30.039062 -29.285156 32.617188 -24.035156 37.140625 -19.765625 C 41.660156 -15.503906 48.25 -13.375 56.90625 -13.375 C 65.1875 -13.375 71.710938 -15.441406 76.484375 -19.578125 C 81.265625 -23.710938 83.65625 -29.023438 83.65625 -35.515625 C 83.65625 -40.609375 82.253906 -44.75 79.453125 -47.9375 C 76.648438 -51.125 73.144531 -53.539062 68.9375 -55.1875 C 64.738281 -56.84375 59.078125 -58.628906 51.953125 -60.546875 C 43.160156 -62.835938 36.125 -65.128906 30.84375 -67.421875 C 25.5625 -69.710938 21.039062 -73.304688 17.28125 -78.203125 C 13.53125 -83.109375 11.65625 -89.695312 11.65625 -97.96875 C 11.65625 -105.226562 13.5 -111.660156 17.1875 -117.265625 C 20.882812 -122.867188 26.070312 -127.195312 32.75 -130.25 C 39.4375 -133.300781 47.109375 -134.828125 55.765625 -134.828125 C 68.242188 -134.828125 78.460938 -131.707031 86.421875 -125.46875 C 94.378906 -119.238281 98.867188 -110.96875 99.890625 -100.65625 L 80.78125 -100.65625 C 80.144531 -105.738281 77.472656 -110.222656 72.765625 -114.109375 C 68.054688 -117.992188 61.816406 -119.9375 54.046875 -119.9375 C 46.785156 -119.9375 40.863281 -118.054688 36.28125 -114.296875 C 31.695312 -110.546875 29.40625 -105.296875 29.40625 -98.546875 C 29.40625 -93.710938 30.773438 -89.765625 33.515625 -86.703125 C 36.253906 -83.648438 39.628906 -81.328125 43.640625 -79.734375 C 47.648438 -78.140625 53.285156 -76.328125 60.546875 -74.296875 C 69.328125 -71.878906 76.390625 -69.488281 81.734375 -67.125 C 87.085938 -64.769531 91.671875 -61.140625 95.484375 -56.234375 C 99.304688 -51.335938 101.21875 -44.6875 101.21875 -36.28125 C 101.21875 -29.789062 99.5 -23.679688 96.0625 -17.953125 C 92.625 -12.222656 87.53125 -7.570312 80.78125 -4 C 74.039062 -0.4375 66.082031 1.34375 56.90625 1.34375 Z M 56.90625 1.34375 "/></g></g></g></g></g></svg>